<svg xmlns="http://www.w3.org/2000/svg" width="256" height="256" viewBox="0 0 100 100"><rect width="100" height="100" rx="20" fill="#000000"></rect><path d="M71.69 77.86L63.86 77.86L60.53 63.28L39.11 63.28L35.87 77.86L28.31 77.86Q29.84 71.92 31.73 64.98Q33.62 58.06 35.83 50.77Q38.03 43.48 40.46 36.14Q42.89 28.81 45.59 22.15L45.59 22.15L54.77 22.15Q57.38 28.81 59.77 36.14Q62.15 43.48 64.27 50.77Q66.38 58.06 68.27 64.98Q70.16 71.92 71.69 77.86L71.69 77.86ZM49.91 28.63L49.91 28.63Q47.84 34.30 45.41 41.77Q42.98 49.24 40.82 57.16L40.82 57.16L58.82 57.16Q56.75 49.06 54.37 41.54Q51.98 34.03 49.91 28.63Z" fill="#fff"></path></svg>