<svg xmlns="http://www.w3.org/2000/svg" width="424" height="128"><style>line, path, circle, rect, polygon{stroke:black;stroke-width:2;stroke-opacity:1;fill-opacity:1;stroke-linecap:round;stroke-linejoin:miter;}text{font-family:Iosevka Fixed, monospace;font-size:14px;}rect.backdrop{stroke:none;fill:white;}.broken{stroke-dasharray:8;}.filled{fill:black;}.bg_filled{fill:white;}.nofill{fill:white;}.end_marked_arrow{marker-end:url(#arrow);}.start_marked_arrow{marker-start:url(#arrow);}.end_marked_diamond{marker-end:url(#diamond);}.start_marked_diamond{marker-start:url(#diamond);}.end_marked_circle{marker-end:url(#circle);}.start_marked_circle{marker-start:url(#circle);}.end_marked_open_circle{marker-end:url(#open_circle);}.start_marked_open_circle{marker-start:url(#open_circle);}.end_marked_big_open_circle{marker-end:url(#big_open_circle);}.start_marked_big_open_circle{marker-start:url(#big_open_circle);}<!--separator--></style><defs><marker id="arrow" viewBox="-2 -2 8 8" refX="4" refY="2" markerWidth="7" markerHeight="7" orient="auto-start-reverse"><polygon points="0,0 0,4 4,2 0,0"></polygon></marker><marker id="diamond" viewBox="-2 -2 8 8" refX="4" refY="2" markerWidth="7" markerHeight="7" orient="auto-start-reverse"><polygon points="0,2 2,0 4,2 2,4 0,2"></polygon></marker><marker id="circle" viewBox="0 0 8 8" refX="4" refY="4" markerWidth="7" markerHeight="7" orient="auto-start-reverse"><circle cx="4" cy="4" r="2" class="filled"></circle></marker><marker id="open_circle" viewBox="0 0 8 8" refX="4" refY="4" markerWidth="7" markerHeight="7" orient="auto-start-reverse"><circle cx="4" cy="4" r="2" class="bg_filled"></circle></marker><marker id="big_open_circle" viewBox="0 0 8 8" refX="4" refY="4" markerWidth="7" markerHeight="7" orient="auto-start-reverse"><circle cx="4" cy="4" r="3" class="bg_filled"></circle></marker></defs><rect class="backdrop" x="0" y="0" width="424" height="128"></rect><line x1="136" y1="32" x2="192" y2="32" class="solid"></line><g><line x1="84" y1="32" x2="128" y2="32" class="solid"></line><line x1="84" y1="32" x2="84" y2="96" class="solid"></line><line x1="128" y1="32" x2="136" y2="48" class="solid"></line><line x1="136" y1="48" x2="156" y2="48" class="solid"></line><line x1="140" y1="48" x2="140" y2="56" class="solid"></line><line x1="140" y1="56" x2="128" y2="80" class="solid"></line><line x1="156" y1="48" x2="156" y2="112" class="solid"></line><line x1="128" y1="80" x2="144" y2="112" class="solid"></line><line x1="172" y1="48" x2="192" y2="48" class="solid"></line><line x1="200" y1="32" x2="192" y2="48" class="solid"></line><line x1="172" y1="48" x2="172" y2="112" class="solid"></line><line x1="156" y1="112" x2="172" y2="112" class="solid"></line><line x1="100" y1="80" x2="112" y2="80" class="solid"></line><line x1="100" y1="80" x2="100" y2="112" class="solid"></line><line x1="112" y1="80" x2="128" y2="112" class="solid"></line><line x1="128" y1="112" x2="144" y2="112" class="solid"></line><line x1="32" y1="96" x2="64" y2="96" class="solid"></line><line x1="32" y1="96" x2="24" y2="112" class="solid"></line><line x1="64" y1="96" x2="72" y2="112" class="solid"></line><line x1="72" y1="112" x2="100" y2="112" class="solid"></line><line x1="200" y1="32" x2="260" y2="32" class="solid"></line><line x1="260" y1="32" x2="260" y2="64" class="solid"></line><line x1="284" y1="32" x2="300" y2="32" class="solid"></line><line x1="284" y1="32" x2="284" y2="64" class="solid"></line><line x1="300" y1="32" x2="300" y2="56" class="solid"></line><line x1="260" y1="64" x2="284" y2="64" class="solid"></line><line x1="300" y1="56" x2="312" y2="80" class="solid"></line><line x1="312" y1="80" x2="336" y2="80" class="solid"></line><line x1="204" y1="48" x2="244" y2="48" class="solid"></line><line x1="244" y1="32" x2="244" y2="112" class="solid"></line><line x1="204" y1="48" x2="204" y2="96" class="solid"></line><line x1="204" y1="96" x2="244" y2="96" class="solid"></line><line x1="260" y1="80" x2="284" y2="80" class="solid"></line><line x1="260" y1="80" x2="260" y2="112" class="solid"></line><line x1="284" y1="80" x2="284" y2="112" class="solid"></line><line x1="200" y1="112" x2="260" y2="112" class="solid"></line><line x1="300" y1="64" x2="300" y2="112" class="solid"></line><line x1="300" y1="96" x2="336" y2="96" class="solid"></line><path d="M 336,80 A 16,16 0,0,1 336,96" class="nofill"></path><line x1="284" y1="112" x2="344" y2="112" class="solid"></line><line x1="312" y1="32" x2="372" y2="32" class="solid"></line><line x1="312" y1="32" x2="304" y2="48" class="solid"></line><line x1="372" y1="32" x2="372" y2="64" class="solid"></line><line x1="396" y1="32" x2="412" y2="32" class="solid"></line><line x1="396" y1="32" x2="396" y2="64" class="solid"></line><line x1="412" y1="32" x2="412" y2="112" class="solid"></line><line x1="372" y1="64" x2="396" y2="64" class="solid"></line><line x1="320" y1="48" x2="356" y2="48" class="solid"></line><line x1="356" y1="32" x2="356" y2="88" class="solid"></line><path d="M 320,48 A 16,16 0,0,0 320,64" class="nofill"></path><line x1="320" y1="64" x2="344" y2="64" class="solid"></line><line x1="344" y1="64" x2="352" y2="80" class="solid"></line><line x1="356" y1="88" x2="344" y2="112" class="solid"></line><line x1="372" y1="80" x2="396" y2="80" class="solid"></line><line x1="372" y1="80" x2="372" y2="112" class="solid"></line><line x1="396" y1="80" x2="396" y2="112" class="solid"></line><line x1="396" y1="112" x2="412" y2="112" class="solid"></line><line x1="356" y1="96" x2="356" y2="112" class="solid"></line><line x1="356" y1="112" x2="372" y2="112" class="solid"></line><line x1="48" y1="32" x2="8" y2="112" class="solid"></line><line x1="48" y1="32" x2="88" y2="112" class="solid"></line><line x1="8" y1="112" x2="24" y2="112" class="solid"></line><line x1="188" y1="64" x2="188" y2="88" class="solid"></line><line x1="188" y1="88" x2="200" y2="112" class="solid"></line></g><g><line x1="100" y1="48" x2="120" y2="48" class="solid"></line><line x1="100" y1="48" x2="100" y2="64" class="solid"></line><line x1="100" y1="64" x2="120" y2="64" class="solid"></line><path d="M 120,48 A 16,16 0,0,1 120,64" class="nofill"></path></g><g><line x1="48" y1="64" x2="40" y2="80" class="solid"></line><line x1="48" y1="64" x2="56" y2="80" class="solid"></line></g></svg>